<mxfile host="app.diagrams.net" modified="2021-08-24T10:03:09.385Z" agent="5.0 (Windows NT 10.0; Win64; x64) AppleWebKit/537.36 (KHTML, like Gecko) Chrome/92.0.4515.131 Safari/537.36" etag="PTUdM1ZymgCe2gnJK5LS" version="14.9.8" type="github">
  <diagram id="P_Njvaly1Kb_u3uV7EXD" name="Page-1">
    <mxGraphModel dx="599" dy="310" grid="1" gridSize="10" guides="1" tooltips="1" connect="1" arrows="1" fold="1" page="1" pageScale="1" pageWidth="827" pageHeight="1169" math="0" shadow="0">
      <root>
        <mxCell id="0" />
        <mxCell id="1" parent="0" />
        <mxCell id="n_J379EuFKL8t4P7nnds-5" value="" style="edgeStyle=orthogonalEdgeStyle;rounded=0;orthogonalLoop=1;jettySize=auto;html=1;" edge="1" parent="1" target="n_J379EuFKL8t4P7nnds-3">
          <mxGeometry relative="1" as="geometry">
            <mxPoint x="260" y="140" as="sourcePoint" />
          </mxGeometry>
        </mxCell>
        <mxCell id="n_J379EuFKL8t4P7nnds-6" value="" style="edgeStyle=orthogonalEdgeStyle;rounded=0;orthogonalLoop=1;jettySize=auto;html=1;" edge="1" parent="1" source="n_J379EuFKL8t4P7nnds-3">
          <mxGeometry relative="1" as="geometry">
            <mxPoint x="260" y="350" as="targetPoint" />
          </mxGeometry>
        </mxCell>
        <mxCell id="n_J379EuFKL8t4P7nnds-21" value="" style="edgeStyle=orthogonalEdgeStyle;rounded=0;orthogonalLoop=1;jettySize=auto;html=1;" edge="1" parent="1" source="n_J379EuFKL8t4P7nnds-3">
          <mxGeometry relative="1" as="geometry">
            <mxPoint x="410" y="240" as="targetPoint" />
            <Array as="points">
              <mxPoint x="410" y="240" />
              <mxPoint x="410" y="240" />
            </Array>
          </mxGeometry>
        </mxCell>
        <mxCell id="n_J379EuFKL8t4P7nnds-3" value="APP与设备是否在&lt;br&gt;同一个局域网" style="rhombus;whiteSpace=wrap;html=1;" vertex="1" parent="1">
          <mxGeometry x="175" y="190" width="170" height="100" as="geometry" />
        </mxCell>
        <mxCell id="n_J379EuFKL8t4P7nnds-22" style="edgeStyle=orthogonalEdgeStyle;rounded=0;orthogonalLoop=1;jettySize=auto;html=1;entryX=1;entryY=0.5;entryDx=0;entryDy=0;" edge="1" parent="1" source="n_J379EuFKL8t4P7nnds-7" target="n_J379EuFKL8t4P7nnds-8">
          <mxGeometry relative="1" as="geometry">
            <Array as="points">
              <mxPoint x="474" y="100" />
            </Array>
          </mxGeometry>
        </mxCell>
        <mxCell id="n_J379EuFKL8t4P7nnds-7" value="涂鸦云" style="ellipse;whiteSpace=wrap;html=1;" vertex="1" parent="1">
          <mxGeometry x="414" y="200" width="120" height="80" as="geometry" />
        </mxCell>
        <mxCell id="n_J379EuFKL8t4P7nnds-8" value="APP" style="ellipse;whiteSpace=wrap;html=1;" vertex="1" parent="1">
          <mxGeometry x="200" y="60" width="120" height="80" as="geometry" />
        </mxCell>
        <mxCell id="n_J379EuFKL8t4P7nnds-9" value="设备" style="ellipse;whiteSpace=wrap;html=1;" vertex="1" parent="1">
          <mxGeometry x="200" y="350" width="120" height="80" as="geometry" />
        </mxCell>
        <mxCell id="n_J379EuFKL8t4P7nnds-10" value="是" style="text;html=1;strokeColor=none;fillColor=none;align=center;verticalAlign=middle;whiteSpace=wrap;rounded=0;" vertex="1" parent="1">
          <mxGeometry x="250" y="310" width="40" height="20" as="geometry" />
        </mxCell>
        <mxCell id="n_J379EuFKL8t4P7nnds-12" value="否" style="text;html=1;strokeColor=none;fillColor=none;align=center;verticalAlign=middle;whiteSpace=wrap;rounded=0;" vertex="1" parent="1">
          <mxGeometry x="355" y="210" width="40" height="20" as="geometry" />
        </mxCell>
        <mxCell id="n_J379EuFKL8t4P7nnds-19" value="" style="endArrow=classic;startArrow=classic;html=1;entryX=0.583;entryY=1.013;entryDx=0;entryDy=0;entryPerimeter=0;exitX=1;exitY=0.625;exitDx=0;exitDy=0;exitPerimeter=0;" edge="1" parent="1" source="n_J379EuFKL8t4P7nnds-9" target="n_J379EuFKL8t4P7nnds-7">
          <mxGeometry width="50" height="50" relative="1" as="geometry">
            <mxPoint x="330" y="400" as="sourcePoint" />
            <mxPoint x="450" y="340" as="targetPoint" />
          </mxGeometry>
        </mxCell>
      </root>
    </mxGraphModel>
  </diagram>
</mxfile>
